<svg width="83" height="174" viewBox="0 0 83 174" fill="none" xmlns="http://www.w3.org/2000/svg">
<path d="M41 171C32 171 6 76 6 76H76.5C76.5 76 50 171 41 171Z" fill="#F9BA4D" stroke="#192742" stroke-width="5" stroke-linejoin="round"/>
<path d="M17.5 78L61.5 122" stroke="#192742" stroke-linejoin="round"/>
<path d="M34 74L67 107" stroke="#192742" stroke-linejoin="round"/>
<path d="M12 96L56 140" stroke="#192742" stroke-linejoin="round"/>
<path d="M23 131L50 158" stroke="#192742" stroke-linejoin="round"/>
<path d="M21 78L11 88" stroke="#192742" stroke-linejoin="round"/>
<path d="M62 78L72 88" stroke="#192742" stroke-linejoin="round"/>
<path d="M45 76L16 105" stroke="#192742" stroke-linejoin="round"/>
<path d="M67 100L26 140" stroke="#192742" stroke-linejoin="round"/>
<path d="M60 129L31 158" stroke="#192742" stroke-linejoin="round"/>
<path d="M67 78L21 124" stroke="#192742" stroke-linejoin="round"/>
<rect x="1.25569" y="0.642271" width="67.5715" height="11.6315" rx="5.81577" transform="matrix(0.950708 -0.310086 0.304983 0.952358 2.5985 48.4627)" fill="#FCABB2" stroke="black" stroke-width="2"/>
<path d="M77.9892 74.8623L10.9834 74.8623C31.4766 67.4939 67.2106 50.091 75.5 54.512C83.7894 58.933 80.2918 71.1781 77.9892 74.8623Z" fill="#FCABB2"/>
<path d="M34.47 22.6346C12.365 26.7793 14.4689 39.6324 14.4689 45.1587C31.0477 41.014 40.7186 36.4296 59.3697 31.343C66.9683 29.2707 54.5026 -4.30584 39.9962 2.60197C44.1409 10.8914 42.2112 21.1831 34.47 22.6346Z" fill="#FCABB2"/>
<path d="M77.9892 74.8623L10.9834 74.8623C31.4766 67.4939 67.2106 50.091 75.5 54.512C83.7894 58.933 80.2918 71.1781 77.9892 74.8623Z" stroke="black" stroke-width="2" stroke-linejoin="round"/>
<path d="M34.47 22.6346C12.365 26.7793 14.4689 39.6324 14.4689 45.1587C31.0477 41.014 40.7186 36.4296 59.3697 31.343C66.9683 29.2707 54.5026 -4.30584 39.9962 2.60197C44.1409 10.8914 42.2112 21.1831 34.47 22.6346Z" stroke="black" stroke-width="2" stroke-linejoin="round"/>
<rect x="1.25732" y="0.63908" width="75.3238" height="13.2377" rx="6.61886" transform="matrix(0.949918 -0.3125 0.307401 0.95158 1.315 62.9109)" fill="#FCABB2" stroke="black" stroke-width="2"/>
<path d="M9.6333 66.8649C9.8868 67.9916 11.0698 70.0929 13.7739 69.4845" stroke="black" stroke-linecap="round" stroke-linejoin="round"/>
<path d="M9.63647 52.0258C9.88424 53.0349 10.9852 54.9045 13.4071 54.3098" stroke="black" stroke-linecap="round" stroke-linejoin="round"/>
<path d="M51.0001 11.0116C52.6667 12.6783 55.8001 16.8116 55.0001 20.0116" stroke="black" stroke-linecap="round" stroke-linejoin="round"/>
</svg>
